<svg class="svg" version="1.1" xmlns="http://www.w3.org/2000/svg" xmlns:xlink="http://www.w3.org/1999/xlink" x="0px" y="0px" viewBox="134 291.1 400 410.7" enable-background="new 134 291.1 400 410.7" xml:space="preserve">
                        <path fill="#FFFFFF" d="M219.7,401.1c-10.4,0-20.1,4.1-27.3,11.4c-7.3,7.3-11.2,17.1-11.2,27.4c0.1,21.1,17.3,38.3,38.5,38.3h0
								c0,0,0,0,0,0c10.3,0,20-4,27.3-11.4c7.3-7.4,11.3-17.1,11.2-27.5C258.1,418.3,240.9,401.1,219.7,401.1z M232.8,452.8
								c-3.5,3.5-8.2,5.5-13.1,5.5v10l0-10c-10.2,0-18.5-8.2-18.5-18.4c0-5,1.9-9.8,5.4-13.3c3.5-3.5,8.2-5.5,13.3-5.5
								c10.1,0,18.4,8.3,18.5,18.4C238.3,444.5,236.4,449.2,232.8,452.8z M526.2,303.9c-4.9-7.2-12.7-10.4-20.8-12.8
								c-114.3,0-228.6,0-342.9,0c-5.5,2.8-11.5,4.9-16.5,8.4c-6.9,4.7-9.7,12.4-12,20.2c0,80,0,160,0,240c0.3,0.7,0.7,1.4,0.9,2.1
								c4.2,16.2,17.2,26.4,34,26.4c23.3,0,46.7,0,70,0c33.8,0,67.6,0,101.3-0.1c0,0,0,0,0,0c3.6,0,6.1,1,8.7,3.5
								c35.2,35.3,70.5,70.5,105.7,105.7c1.3,1.3,2.4,2.9,3.6,4.4c0.5-0.2,1-0.5,1.4-0.7c-3.8-37.5-7.6-74.9-11.4-112.9c6.1,0,12,0,17.8,0 c2.9,0,5.8,0,8.7,0c0,0,0,0,0.1,0c4.9,0,9.8,0,14.7,0c3,0,6,0,9,0c17.4-0.1,30.1-10,34.6-26.9c0.2-0.6,0.5-1.1,0.8-1.6 c0-80,0-160,0-240C531.4,314.4,529.4,308.7,526.2,303.9z M514,555.7c-0.1,0.2-0.1,0.4-0.2,0.6c-2.2,8.2-7,12-15.3,12c-3,0-6,0-9,0 c-2.4,0-4.9,0-7.3,0c-2.5,0-4.9,0-7.4,0h-0.1h-8.7h-17.8h-22.1l2.2,22l5.9,58.5c-23.3-23.3-47.5-47.4-71.2-71.2 c-6.2-6.2-13.9-9.4-22.9-9.4h-0.1h0c-31.5,0.1-64.6,0.1-101.3,0.1c-23.3,0-46.7,0-70,0c-7.6,0-12.7-4-14.7-11.5 c-0.1-0.3-0.2-0.6-0.3-0.9V322.8c0.9-2.6,2.2-5.9,3.4-6.8c2-1.4,5.1-2.8,8.3-4.3c0.5-0.2,0.9-0.4,1.4-0.6h335.4 c3,1,6.1,2.3,7.2,3.9c1.3,1.9,2.5,4.7,3.8,7.7c0.2,0.4,0.4,0.9,0.6,1.3V555.7z M448.3,401.1c-21.1,0-38.4,17.2-38.6,38.2
								c-0.1,10.4,3.9,20.2,11.2,27.5c7.3,7.3,17,11.4,27.3,11.4h0c21.1,0,38.4-17.2,38.6-38.3c0.1-10.4-3.9-20.1-11.2-27.5
								C468.3,405.2,458.6,401.1,448.3,401.1z M448.3,458.3v4.3c0,0,0,0,0,0L448.3,458.3c-5,0-9.6-1.9-13.1-5.5c-3.5-3.5-5.4-8.3-5.4-13.3 c0.1-10.1,8.4-18.4,18.6-18.4c5,0,9.6,1.9,13.2,5.5c3.5,3.5,5.4,8.3,5.4,13.3C466.8,450,458.4,458.3,448.3,458.3z M334,401.1 l-0.2,0c-21.1,0-38.3,17.1-38.5,38c-0.1,10.5,3.9,20.3,11.1,27.7c7.2,7.3,16.8,11.4,27.1,11.4h0.2c0,0,0,0,0,0 c10.3,0,20-4,27.3-11.4c7.3-7.3,11.3-17,11.3-27.2C372.4,418.5,355.2,401.2,334,401.1z M347,452.7c-3.6,3.6-8.2,5.5-13.2,5.5
								c0,0,0,0,0,0h-0.1c-4.9,0-9.5-2-13-5.4c-3.5-3.6-5.4-8.3-5.4-13.5c0.1-10,8.4-18.2,18.5-18.2l0.1,0c10.2,0.1,18.5,8.4,18.5,18.5
								C352.4,444.6,350.5,449.2,347,452.7z"></path>
						</svg>