<svg class="svg" fill="#FFFFFF" version="1.1" xmlns="http://www.w3.org/2000/svg" xmlns:xlink="http://www.w3.org/1999/xlink" x="0px" y="0px" viewBox="134 291.1 400 410.7" enable-background="new 134 291.1 400 410.7" xml:space="preserve">
                        <path d="M442.4,696.6c-1.9,0-3.8-0.1-6-0.2c-24.5-1.7-49.3-8.9-80.1-23.6c-54.7-26.7-102.4-64.1-141.9-111.1
							l-0.1-0.1c-31.5-37.7-54.5-76.2-68.4-114.4c-6.9-18.9-13.6-41.7-11.6-66.5l0-0.1c0.7-15.4,7.2-29.3,18.8-40.2l31.1-31.1
							c8.4-8.4,18.3-12.8,28.7-12.8c10.3,0,20.4,4.4,29,12.6c5.7,5.3,11.3,11,16.7,16.6l1.3,1.4c2.4,2.4,4.8,4.9,7.3,7.4l24.6,24.6
							c17.7,18.5,17.8,40.5,0.1,58.9c-5.4,5.4-10.7,10.6-15.9,15.5l-0.8,0.8c-4.1,4-8.4,8.1-12.6,12.3l-1.5,1.5l0.9,2
							c5.4,12.3,13.3,24.4,25.5,39.2c25.1,30.5,49.3,52.5,76.3,69.2l0.5,0.3c3.5,2.5,7.9,4.6,12.1,6.7c1.2,0.6,2.4,1.2,3.5,1.8l2,1
							l30.7-30.7c8.4-8.4,18.4-12.8,28.9-12.8c10.5,0,20.5,4.4,28.9,12.8l50.3,50.4c17.5,17.5,17.5,41,0,58.4c-2.9,2.9-5.7,5.6-8.5,8.4
							l-1.3,1.3c-6.5,6.4-12.7,12.4-18.8,18.9l-0.1,0.1C479.7,689.3,463,696.6,442.4,696.6z M152.7,381.8c-1.8,21.7,4,41.2,10.5,59.1
							c13.2,36.2,35.2,72.9,65.3,109c37.8,45,83.5,80.8,135.8,106.3c28.6,13.6,51.2,20.3,73.3,21.8c1.7,0.1,3.3,0.2,4.9,0.2
							c15.1,0,26.9-5,36-15.4c6.7-7.1,13.5-13.8,19.6-19.7l1-1c2.9-2.8,5.8-5.7,8.7-8.6c5.2-5.2,7.9-10.7,7.9-16.2
							c0-5.5-2.7-11-7.9-16.2l-50.3-50.3c-4.8-4.8-10.3-7.3-15.9-7.3c-5.6,0-11.1,2.5-15.9,7.3l-31.3,31.3c-1.7,1.7-5.6,5.6-11.5,5.6
							c-2.4,0-5-0.7-7.7-2c-2.4-1.3-4.4-2.3-6.4-3.3l-0.5-0.3c-4.8-2.4-9.7-4.9-14.2-8l-0.1-0.1c-28.6-17.8-54.3-41-80.6-73
							c-14.4-17.5-23.5-32.1-29.7-47.2c-3.8-9.4,0.9-15.4,4.1-18.2l0.1-0.1l0.1-0.1c4.9-4.9,9.9-9.8,14.8-14.5l0.7-0.6
							c5.1-4.9,10.3-10,15.5-15.2c10.7-11.1,10.6-22-0.1-33.2l-24.4-24.4c-2.9-2.9-5.8-5.8-8.5-8.7c-5.6-5.7-10.8-11.1-16.4-16.3
							c-5.3-5.1-10.9-7.7-16.4-7.7c-5.5,0-10.7,2.5-15.6,7.4L166,353.5C157.7,361.3,153.2,370.8,152.7,381.8z"></path>
					</svg>